<svg id="Layer_1" data-name="Layer 1" xmlns="http://www.w3.org/2000/svg" viewBox="0 0 436.21 299.49"><defs><style>.cls-1{fill:#3aaa35;}</style></defs><g id="Layer_2" data-name="Layer 2"><g id="Layer_1-2" data-name="Layer 1-2"><path class="cls-1" d="M.61,146.64c7.28,15.24,14.2,30.64,21,46.11S35,223.65,41.67,239.09q5.74,13.24,11.61,26.42c.79,1.77,3.18,2.6,4.93,2.37a5,5,0,0,0,4.12-3.55c1.34-4.91,1.2-10.13,1.08-15.17-.12-4.83.12-9.66.4-14.48q.39-6.85,1.12-13.7c.23-2.22.51-4.44.79-6.66.1-.74-.12.86,0,.12a7.14,7.14,0,0,1,.11-.79c.08-.53.15-1.05.23-1.57.16-1.11.33-2.21.5-3.31a232,232,0,0,1,11.88-45.18c.64-1.68,1.29-3.36,2-5,.32-.8.65-1.59,1-2.39s-.1.3-.12.29l.25-.59.43-1.2c1.37-3.16,2.82-6.3,4.33-9.39q4.32-8.82,9.35-17.27a352.58,352.58,0,0,1,20.26-30c6.59-8.87,13.43-17.54,20-26.41q1.16-1.53,2.28-3.09c1.53-2.1.43-5.61-1.77-6.77-2.58-1.36-5.14-.47-6.78,1.78-6.43,8.82-13.2,17.39-19.76,26.12-7.24,9.61-14.22,19.42-20.53,29.67a246.55,246.55,0,0,0-18.5,36.45,229.09,229.09,0,0,0-12.82,44.07c-1.65,8.91-2.84,17.91-3.61,26.94-.4,4.74-.69,9.5-.86,14.25-.18,5,.1,10-.07,15,0,1.09-.14,2.17-.23,3.25,0,.76.16-.81,0-.07-.06.26-.09.53-.14.8-.12.58-.25,1.16-.41,1.73l9-1.18C54.87,245,48.15,229.41,41.43,213.81,34.77,198.38,28.11,183,21.2,167.63q-5.88-13-12-26c-1.12-2.34-4.66-3.14-6.78-1.78a5.07,5.07,0,0,0-1.77,6.77Z" transform="translate(-0.02 0.04)"/><path class="cls-1" d="M105.6,105.47a65.64,65.64,0,0,1-2.76-8.3c-.3-1.17-.56-2.36-.77-3.55a9.94,9.94,0,0,1-.27-1.72h0c0-.31-.07-.67-.1-1a39,39,0,0,1,.06-7,4.2,4.2,0,0,0,.07-.62c.13,1.16-.1.65,0,.1s.17-1,.27-1.49q.33-1.62.81-3.21c.31-1,.69-2.08,1.1-3.1.15-.41.39-.41-.16.35a5,5,0,0,0,.37-.82c.26-.55.52-1.09.8-1.62A47,47,0,0,1,108.43,68l.56-.76.19-.25h0l-.19.25.39-.5L110,66c.77-.92,1.57-1.82,2.39-2.7a71.36,71.36,0,0,1,5.15-5c2-1.8,4-3.52,6.15-5.18.24-.2,1.77-1.4.79-.63.41-.32.82-.63,1.25-.92.65-.44,1.31-.85,2-1.26,3.23-2,6.53-3.89,9.81-5.81,8.14-4.79,16.21-9.76,23.55-15.74S175.72,15,176.28,5.05A4.94,4.94,0,0,0,172,0c-2.23-.3-5,1.12-5.43,3.55a75.81,75.81,0,0,0-.74,17.16q.38,7.59.66,15.17c.14,3.89.18,7.78,0,11.67-.07,1.73-.18,3.46-.33,5.18-.07.77-.15,1.55-.24,2.33,0,.23-.21,1.7-.09.76s-.08.5-.11.74a60.07,60.07,0,0,1-2.1,9.08c-.21.64-.43,1.28-.66,1.91l-.36.93-.18.47c-.35.89.51-1.14.11-.27-.57,1.27-1.16,2.52-1.83,3.73a39.49,39.49,0,0,1-2.26,3.6q-.27.39-.57.78c-.12.17-.25.32-.36.49,0,0,.81-1,.32-.42s-.93,1.14-1.42,1.69a38.6,38.6,0,0,1-3,3c-.51.46-1,.92-1.55,1.36l-.91.75-.42.32c-.47.38.94-.7.26-.2a66.71,66.71,0,0,1-9.52,5.84c-.89.45-1.79.88-2.69,1.3l-1.48.66-.6.26c-.64.28-.37.14.11,0-2.19.79-4.33,1.72-6.53,2.49-2.43.86-4.32,3.43-3.45,6.09.78,2.41,3.47,4.38,6.09,3.46,13.55-4.76,26.93-11.64,35-24,7.61-11.61,8.92-26.17,8.73-39.69-.07-5.4-.28-10.81-.59-16.2-.18-3.14-.36-6.28-.37-9.43,0-1.48,0-3,.13-4.44a19.63,19.63,0,0,1,.2-2.31c0-.25.17-1.26,0-.29.06-.46.14-.91.22-1.36L166.35,4.9v.68c0,.89.2-1.14.07-.52-.08.42-.14.83-.24,1.24a21.44,21.44,0,0,1-.78,2.47c-.3.85.46-1,.17-.41-.09.18-.17.37-.26.56-.18.37-.37.74-.57,1.1a28.44,28.44,0,0,1-1.57,2.51c-.24.33-1.35,1.61-.27.39-.3.35-.57.72-.87,1.07-.67.8-1.37,1.57-2.09,2.32q-2.33,2.37-4.87,4.5c-.8.67-1.62,1.32-2.44,2s.9-.67,0,0l-.51.38c-.51.39-1,.77-1.55,1.15-1.93,1.4-3.91,2.74-5.9,4.05-3.8,2.48-7.68,4.82-11.59,7.12-3.31,2-6.65,3.85-9.92,5.87a87.09,87.09,0,0,0-11.5,8.83C104.12,56.77,97.51,64.52,94,74c-4.11,11.14-2.32,23.36,2,34.13,1,2.4,3.34,4.35,6.09,3.46,2.31-.75,4.49-3.52,3.46-6.09Z" transform="translate(-0.02 0.04)"/><path class="cls-1" d="M99.59,227c9.44-3.74,18.43-9,25.31-16.59,5-5.57,9.21-12.45,10.55-19.93,1.07-6,.71-12.76-3-17.9a17.6,17.6,0,0,0-16.15-7.32,34.65,34.65,0,0,0-21.81,11.16,39.13,39.13,0,0,0-9.76,23.46,46,46,0,0,0,4.69,23.67c3.25,6.63,8.61,12.79,15.43,15.89A27,27,0,0,0,116.71,242c4.91-.11,9.48-1.69,14-3.37,9.79-3.6,19.32-8.43,26-16.7a57.37,57.37,0,0,0,4.69-6.69,5,5,0,1,0-7.85-6.19,4.9,4.9,0,0,0-.7,1.19c-.6,1-1.23,2-1.9,3-.33.49-.69,1-1,1.45s.22-.18.19-.24a7.22,7.22,0,0,1-.69.86,39.88,39.88,0,0,1-4.62,4.75l-1.18,1a3.48,3.48,0,0,0-.48.38c.76-.9.4-.31,0,0-.92.67-1.87,1.31-2.84,1.92a57.88,57.88,0,0,1-6.06,3.26c-.52.25-1,.48-1.58.72-.32.14-.64.29-1,.42.13,0,1-.42.19-.09-1.27.51-2.53,1-3.82,1.49-2.36.86-4.74,1.75-7.18,2.39-.85.23-1.71.36-2.57.54-.64.13,1.39-.14.48-.07l-.72.08c-.43,0-.86.06-1.29.07-.81,0-1.61,0-2.42-.06-.58,0-1.58-.48,0,0-.41-.13-.89-.15-1.32-.24a19.5,19.5,0,0,1-2.12-.57c-.35-.11-.69-.23-1-.36l-.5-.2c-.37-.14,1.29.59.28.11a28.06,28.06,0,0,1-4-2.34c-1-.71.88.75,0,0-.29-.24-.57-.47-.85-.72-.62-.55-1.22-1.12-1.79-1.72s-1-1.12-1.51-1.71a5.66,5.66,0,0,0-.43-.54c.91.85.55.73.28.36s-.5-.69-.74-1a36.59,36.59,0,0,1-2.57-4.4c-.2-.4-.38-.8-.57-1.2-.06-.15-.12-.3-.19-.44-.4-.86.46,1.17.12.29s-.65-1.67-.93-2.52a39.58,39.58,0,0,1-1.32-5c-.08-.41-.16-.82-.23-1.23s0-1.78,0-.16c0-.89-.21-1.85-.27-2.74a42,42,0,0,1,0-5.26c0-.42.06-.84.1-1.25,0-.25.06-.5.08-.75.09-.79-.07.55-.08.57.17-.91.29-1.82.49-2.72A34.57,34.57,0,0,1,96.81,191c.06-.15.13-.31.19-.47.36-.9-.51,1.14-.1.26.17-.38.34-.76.53-1.14.41-.83.85-1.65,1.34-2.44s.91-1.44,1.41-2.13c.12-.17.26-.34.38-.52.38-.52-.82,1-.22.29l1-1.19c.59-.65,1.2-1.28,1.84-1.89.33-.3.66-.6,1-.89s1.81-1.32.48-.43a45.5,45.5,0,0,1,4.85-3l1.13-.55.66-.3c.82-.38-1,.4-.41.18.78-.29,1.54-.59,2.34-.84s1.41-.4,2.12-.56l1-.18c1.1-.2-1.42.14,0,0a15.66,15.66,0,0,1,1.81-.08H119c.6,0,1.61.44-.15,0,.5.14,1,.18,1.56.32l.75.23c.56.19,1.29.8-.19-.11.42.25.89.43,1.32.69.21.12.41.26.62.4,1,.67-.93-.81-.19-.16.36.33.72.65,1.06,1l.48.55c.65.73-.81-1.19-.15-.17.28.44.57.88.82,1.34l.33.69c.52,1-.46-1.29-.08-.18a22.22,22.22,0,0,1,.88,3.39c.11.61-.18-1.6,0-.31a3.65,3.65,0,0,0,.07.87v2a17.82,17.82,0,0,1-.14,1.86c-.11,1.17.23-1.36,0-.18-.07.39-.13.77-.21,1.16a30.21,30.21,0,0,1-1.16,4.16c-.12.34-.25.67-.38,1s-.18.4-.25.61c.47-1.38.39-.9.24-.58-.36.76-.7,1.51-1.09,2.25a42.15,42.15,0,0,1-2.7,4.4l-.75,1c-.21.3-.69.77.23-.29-.17.2-.32.41-.48.61-.62.75-1.26,1.49-1.92,2.2a49.73,49.73,0,0,1-4.26,4.08c-.37.32-.75.64-1.13.94l-.59.47c-.53.44,1-.75.17-.13s-1.84,1.35-2.79,2a65.47,65.47,0,0,1-6,3.53c-1,.54-2.09,1.06-3.15,1.55l-1.65.74c-1.14.51,1-.4-.17.07l-1,.42c-2.4,1-4.34,3.35-3.46,6.09.76,2.32,3.52,4.48,6.09,3.45Z" transform="translate(-0.02 0.04)"/><path class="cls-1" d="M193.67,145c-14.24-.87-26.27,10.41-33.58,21.46a64.62,64.62,0,0,0-8.76,19.65c-1.68,6.65-2.25,13.82-.52,20.52a25.94,25.94,0,0,0,11.46,15.56,22.2,22.2,0,0,0,17.3,2.46c5.84-1.5,11.07-5.08,15.38-9.21A56.71,56.71,0,0,0,206.17,200c5.53-11.06,8.6-25.13,2.45-36.59a27,27,0,0,0-2.81-4.07c-1.21-1.52-3.77-1.71-5.4-1a5,5,0,0,0-3,4.52A102.29,102.29,0,0,0,200,184.28c1.39,6.4,3.17,12.71,4.51,19.12.35,1.67.67,3.35,1,5,.14.86.26,1.73.4,2.6.09.57,0-.25,0-.3,0,.2.06.41.08.61.07.56.14,1.11.2,1.66a89.47,89.47,0,0,1,.53,10.35c0,2.85-.19,5.69-.42,8.53-.15,1.84-.33,3.67-.54,5.51q-.17,1.5-.36,3l-.09.71c-.12.94.1-.7.05-.37l-.24,1.69c-.64,4.42-1.44,8.82-2.43,13.18a120.38,120.38,0,0,1-3.73,13.17c-.37,1.05-.75,2.09-1.16,3.12-.2.5-.41,1-.61,1.51.19-.49.42-1,.11-.27-.14.31-.27.61-.41.91a57.08,57.08,0,0,1-2.83,5.5c-.5.84-1,1.67-1.58,2.47-.25.36-.51.72-.77,1.07-.46.64,0,0,.26-.31-.19.21-.36.44-.54.66a29.79,29.79,0,0,1-3.73,3.72c-.57.49,1-.72.38-.3l-.47.34c-.36.26-.74.5-1.12.73a11.16,11.16,0,0,1-1,.54l-.59.29c-.76.37,0-.05.41-.16-.78.21-1.51.55-2.31.73-.37.09-.74.14-1.11.22-.69.14,1.41-.13.47-.07h-.68a15.87,15.87,0,0,1-2.58,0l3.5,1.45c-.13-.15-1-1.19-.36-.42s-.15-.23-.29-.43a17.86,17.86,0,0,1-1-1.69c-.15-.28-.28-.57-.42-.86-.45-.92.43,1.23.05.13-.2-.58-.39-1.16-.54-1.76-.07-.29-.13-.59-.19-.88s0-.34-.08-.5.14,1.44.1.72-.09-1.21-.09-1.81.07-1.23.11-1.84-.24,1.4,0,.28c.06-.34.13-.69.2-1a31.74,31.74,0,0,1,1.25-3.91c.21-.55-.48,1.07-.22.54l.24-.54c.13-.29.27-.58.41-.87.35-.7.72-1.4,1.11-2.08.79-1.38,1.66-2.71,2.58-4,.46-.64,1-1.26,1.42-1.92-.84,1.26,0,0,.21-.25l.93-1.15A162.58,162.58,0,0,1,205,249.39c7.13-6.35,14.51-12.42,21.85-18.53,8.53-7.1,17-14.24,25.17-21.8a5,5,0,0,0,0-7,5.07,5.07,0,0,0-7,0c-17.64,16.4-37.25,30.58-54.58,47.31-11,10.64-27.33,27.89-18,44.39a18.71,18.71,0,0,0,1.35,2.06c.43.59.87,1.19,1.35,1.74a5.44,5.44,0,0,0,4,1.84,21.05,21.05,0,0,0,5.6-.37,22,22,0,0,0,9.63-4.74c5.8-4.63,9.39-11.53,12.19-18.25a116.05,116.05,0,0,0,6.56-22.82,195.34,195.34,0,0,0,3-22.2,104.38,104.38,0,0,0-1.31-26c-1-5.65-2.41-11.22-3.78-16.79-.69-2.8-1.35-5.6-1.93-8.42-.28-1.37-.54-2.75-.77-4.13-.11-.63-.21-1.27-.3-1.91,0-.22-.25-1.53,0-.24-.08-.52-.13-1-.19-1.57a83.64,83.64,0,0,1-.52-9.09l-8.45,3.5c.4.5-.74-1.06-.11-.13l.49.71a17.71,17.71,0,0,1,1,1.68c.14.25.26.51.39.77l.17.39c.32.65-.24-.6-.24-.59.14.61.47,1.23.66,1.84a30.37,30.37,0,0,1,.82,3.64c.14.76-.14-1.37,0-.21,0,.3,0,.6.08.9,0,.69.08,1.37.08,2.06a35.6,35.6,0,0,1-.2,4c0,.44-.29,1.53,0-.13-.06.32-.1.64-.15.95-.12.72-.25,1.44-.41,2.16a51.91,51.91,0,0,1-2.51,8c-.42,1.06.47-1,0,0l-.47,1c-.31.66-.62,1.32-1,2-.66,1.3-1.37,2.56-2.13,3.8s-1.55,2.44-2.4,3.61l-.6.81c-.68.91.71-.89,0,0-.44.55-.89,1.1-1.35,1.64a50.17,50.17,0,0,1-5.87,5.7c-.5.41,1-.75.08-.07l-.74.54c-.55.39-1.11.77-1.69,1.12a34.21,34.21,0,0,1-3.27,1.75c-1,.49.94-.35.21-.08l-.78.29c-.59.22-1.18.4-1.78.56a16.2,16.2,0,0,1-1.58.36l-.79.13c1.82-.34.61-.09.13,0-1.14.08-2.24-.06-3.37-.08,0,0,1.43.24.73.09l-.39-.07-.79-.17c-.59-.15-1.17-.32-1.75-.53s-1.21-.64.22.11c-.24-.13-.51-.23-.76-.35-.55-.27-1.09-.58-1.61-.9l-.84-.56c-.4-.28-1-1,.08.08-.48-.47-1-.87-1.55-1.34a20,20,0,0,1-1.43-1.48,4,4,0,0,0-.59-.71s.77,1.06.36.45l-.33-.46c-.35-.51-.67-1-1-1.57l-.48-.91c-.1-.21-.6-1.35-.23-.46s-.06-.2-.13-.38-.21-.59-.31-.89c-.22-.67-.4-1.36-.56-2s-.25-1.26-.36-1.9c-.19-1.12.12,1.24,0,.1,0-.37-.08-.74-.11-1.11a39.09,39.09,0,0,1,0-4.33,20.78,20.78,0,0,1,.17-2.09c0-.19.19-1.64.07-.67s.07-.44.11-.67a53.91,53.91,0,0,1,2.44-9.17c.26-.72.54-1.44.82-2.15.5-1.21-.27.61.06-.15.2-.44.39-.88.6-1.32a48.15,48.15,0,0,1,2.25-4.41q1.25-2.16,2.58-4.22c.43-.65.87-1.28,1.32-1.9l.69-.93c.18-.25.59-.67-.25.32.18-.22.35-.46.53-.68a51.45,51.45,0,0,1,6.45-6.75l.83-.69c.27-.23,1.48-1.07.14-.14.61-.43,1.2-.89,1.82-1.31a34.09,34.09,0,0,1,3.73-2.2l.9-.44.43-.19c-.89.39.25-.09.43-.16l1-.35a37.37,37.37,0,0,1,3.93-.92c-1.63.34-.61.09-.15,0s.7,0,1-.06a16.68,16.68,0,0,1,2,0,5,5,0,1,0,0-9.9Z" transform="translate(-0.02 0.04)"/><path class="cls-1" d="M270.14,132.85c-14.94-4-27.9,7.82-35.68,19.2a71.66,71.66,0,0,0-9.57,20.23c-1.86,6.38-2.79,13.26-1.31,19.81,1.28,5.73,3.58,12.15,8.29,16a15.08,15.08,0,0,0,14.57,2.68c5.22-1.74,9.67-5.32,13.37-9.31a73.09,73.09,0,0,0,11.1-16.07c6.45-12.48,10.73-27.1,9.52-41.26-.17-1.94-.43-3.88-.79-5.8a4.94,4.94,0,0,0-4.77-3.63,5.2,5.2,0,0,0-4.77,3.63,62,62,0,0,0-3.66,15.25,63.93,63.93,0,0,0-.12,16,43.23,43.23,0,0,0,5,16.44A26,26,0,0,0,284,197.19c6.94,2.87,15,2.09,22,.13a5,5,0,0,0-2.63-9.55,46.88,46.88,0,0,1-5.1,1.13l-.59.09c-.55.1.65-.08.6-.08-.37,0-.76.09-1.13.12-.77.07-1.54.12-2.31.13h-2.07l-.86-.06c-.52,0-1.77-.41-.13,0-1.18-.3-2.38-.44-3.56-.82l-.82-.29c-.44-.17-1.24-.66.18.09-.49-.26-1-.47-1.51-.74a12.69,12.69,0,0,1-1.42-.85L284,186c-.94-.66.81.69.11.08a23.15,23.15,0,0,1-2.41-2.34c-.16-.18-.31-.37-.46-.55-.66-.78.74,1,.14.19-.34-.48-.68-1-1-1.45a28.92,28.92,0,0,1-1.62-3l-.36-.78c-.26-.58.49,1.24.08.18-.22-.58-.44-1.16-.64-1.75a43.08,43.08,0,0,1-1.7-7.18c-.06-.43-.12-1.55,0,.16,0-.31-.08-.62-.11-.93-.07-.62-.13-1.25-.17-1.87-.1-1.3-.15-2.61-.17-3.91a68,68,0,0,1,.38-7.69l.12-1v-.35c.11-.93-.19,1.32-.05.4.1-.69.2-1.37.32-2,.23-1.32.49-2.64.8-3.94a54,54,0,0,1,2.26-7.26H270.1c.06.36.13.72.18,1.08l.09.54c.13.81-.06-.45-.07-.5.07.82.2,1.64.26,2.47.12,1.54.16,3.08.15,4.62s-.11,3.22-.26,4.83c-.07.77-.16,1.53-.25,2.29s.16-1.09.06-.45a3.72,3.72,0,0,1-.08.57l-.21,1.29a76,76,0,0,1-2.27,9.54q-.7,2.31-1.54,4.58c-.27.73-.55,1.46-.84,2.18-.16.41-.33.81-.49,1.21-.24.59.42-1,.16-.38l-.29.66a79.55,79.55,0,0,1-9.21,15.84c-.48.65.77-1,0,0-.2.26-.41.51-.62.77-.46.56-.94,1.12-1.42,1.66-.85.95-1.73,1.87-2.66,2.75s-1.77,1.56-2.68,2.32c1.43-1.2-.06,0-.47.31s-1,.64-1.47.94a11.92,11.92,0,0,1-1.3.7l-.64.31c-1,.47,1.11-.4.3-.12a26.78,26.78,0,0,1-2.69.76c-.92.21,1.43-.12.54-.07l-.61,0h-1.29c-1,0,1.26.23.58.08a2.37,2.37,0,0,1-.58-.11c-.45-.1-.86-.26-1.29-.39-.65-.22,1.33.66.49.19l-.55-.29-.54-.33c-.2-.13-1-.72-.15-.09s.09.06-.08-.09l-.5-.47a13.27,13.27,0,0,1-1-1.15c-.31-.39.79,1.12.19.23l-.45-.66c-.34-.54-.66-1.1-1-1.67s-.5-1.14-.79-1.68c.74,1.37.19.47,0,0s-.31-.81-.45-1.22a46.13,46.13,0,0,1-1.28-4.6c-.07-.33-.14-.65-.2-1s-.21-1.35-.07-.31,0-.14,0-.35-.06-.69-.07-1a31.8,31.8,0,0,1,.09-4.14,8.06,8.06,0,0,1,.1-1c0-.17,0-.34.06-.51,0,0-.19,1.34-.07.54s.24-1.5.39-2.25a57.82,57.82,0,0,1,2.69-9.21l.44-1.11.23-.56c.31-.78-.11.27-.15.35a25.49,25.49,0,0,0,1.13-2.5q1.08-2.28,2.34-4.49c.83-1.47,1.72-2.92,2.66-4.32.48-.72,1-1.43,1.49-2.13l.72-1c.38-.52-.62.78-.22.28l.47-.59a49.78,49.78,0,0,1,6.77-7l.87-.7c.48-.4-.85.63-.35.27l.44-.33q.93-.67,1.89-1.29c1.26-.79,2.58-1.39,3.89-2.07,0,0-1.21.48-.48.21.16-.05.31-.12.47-.18l.94-.32a19.67,19.67,0,0,1,2.13-.57l1-.17c.8-.17-1.36.11-.12,0a19.1,19.1,0,0,1,2-.07h1c.36,0,1.45.15.43,0s.24,0,.43.09l1.09.26a4.95,4.95,0,0,0,2.64-9.54Z" transform="translate(-0.02 0.04)"/><path class="cls-1" d="M300.77,127.34c0,17.14-1.75,34.24-1.61,51.38q0,6.93.65,13.82a5,5,0,0,0,4.29,4.86,4.92,4.92,0,0,0,5.43-3.54c2-7.52,2.77-15.34,4-23,1.43-8.71,3.05-17.56,6.32-25.8.1-.23.19-.47.29-.7.36-.9-.51,1.13-.11.26.2-.45.4-.9.61-1.35.44-.94.91-1.86,1.42-2.76.41-.73.85-1.45,1.32-2.14.25-.37.52-.73.77-1.09.51-.73-.81,1-.24.31.19-.22.36-.45.55-.67a24.78,24.78,0,0,1,1.74-1.81c.31-.28.62-.53.93-.8.65-.55-1.06.75-.36.28l.58-.4a17.1,17.1,0,0,1,2-1.13c.42-.22,1-.23-.45.17.19,0,.38-.15.56-.21.45-.16.9-.3,1.36-.42s.8-.18,1.21-.26.93.1-.48,0c.21,0,.43,0,.64-.06a21.67,21.67,0,0,1,2.28,0c1,0-1.49-.32-.25,0,.29.07.58.13.86.21s.55.22.82.3c-1.73-.49-.69-.31-.14,0,.21.12.41.25.61.38l.35.25c.61.39-1.06-.91-.54-.42a15.19,15.19,0,0,1,1.4,1.36c.4.49.86,1.38-.08-.15.17.27.38.52.56.79.38.56.73,1.14,1.06,1.73s.67,1.27,1,1.92c.16.34.3.68.46,1,.33.76-.51-1.25-.21-.48.1.24.2.48.29.73.6,1.52,1.14,3.07,1.64,4.63,1.13,3.49,2.13,7,3.22,10.53C348,162.88,350.87,170.57,356,177a30,30,0,0,0,23.11,11.15c10.09.12,19.3-4.48,26.76-11,7.66-6.69,13.6-15.42,18.3-24.38a129.78,129.78,0,0,0,10.63-27.09c.5-1.87.94-3.76,1.32-5.65.51-2.53-.72-5.47-3.45-6.09-2.47-.56-5.55.74-6.09,3.46a106.64,106.64,0,0,1-3.23,12.06c-.74,2.27-1.55,4.53-2.43,6.76-.39,1-.84,2-1.23,3,.57-1.51-.18.41-.33.76-.29.65-.58,1.3-.88,1.95a112.64,112.64,0,0,1-7.2,13.33c-1.31,2.07-2.71,4.1-4.19,6.06-.25.33-.9.81,0,0a6.48,6.48,0,0,0-.56.71l-1.15,1.4q-1.14,1.37-2.37,2.67a56.44,56.44,0,0,1-5.26,5c-.34.28-1.91,1.29-.55.46-.39.24-.75.56-1.13.82-1,.7-2,1.35-3,2a22.4,22.4,0,0,1-2.88,1.53c-.41.19-2.14.78-.55.27-.55.17-1.08.42-1.63.61-1,.34-2,.63-2.95.87-.53.13-1.05.24-1.58.34l-.8.13c-.88.16,1.35-.15,0,0a52.7,52.7,0,0,1-6.65,0c1.67,0,0,0-.52-.14s-1-.22-1.48-.35-.95-.27-1.42-.42a8,8,0,0,0-1.57-.58c1,.08.92.41.32.13l-.43-.2c-.41-.2-.82-.41-1.22-.63a26.42,26.42,0,0,1-2.47-1.57c-.38-.26-.71-.77.29.24a5.3,5.3,0,0,0-.52-.42c-.34-.28-.67-.57-1-.87a20.7,20.7,0,0,1-1.86-1.89l-.86-1c-.14-.17-.26-.36-.41-.52,1,1.08.48.64.23.29-.56-.79-1.11-1.58-1.62-2.41a49.65,49.65,0,0,1-2.59-4.82l-.57-1.26c-.09-.21-.17-.44-.27-.64.71,1.39.28.69.14.32-.35-.87-.69-1.73-1-2.61-.67-1.83-1.29-3.68-1.88-5.54-2.17-6.85-3.83-14-7.09-20.44-3.1-6.14-8.56-10.74-15.75-10.27a21,21,0,0,0-12,4.64,29.11,29.11,0,0,0-7.28,9.07c-4.3,7.93-6.42,17-8.08,25.76-1.54,8.21-2.51,16.51-4.09,24.71-.3,1.55-.63,3.09-1,4.62l9.72,1.31c-1.58-16.91-.06-34,.62-50.88.2-4.77.34-9.55.34-14.32a5,5,0,1,0-9.9,0h0Z" transform="translate(-0.02 0.04)"/></g></g></svg>